<svg xmlns="http://www.w3.org/2000/svg" xmlns:xlink="http://www.w3.org/1999/xlink" viewBox="0 0 32 32" fill="#FFFFFF">
  <path d="M11 4C9.3550302 4 8 5.3550302 8 7L8 22L4 22L4 25C4 26.64315 5.35685 28 7 28L21 28C22.64497 28 24 26.64497 24 25L24 11L28 11L28 7C28 5.35685 26.64315 4 25 4L11 4 z M 11 6L22.1875 6C22.073827 6.3147819 22 6.6485467 22 7L22 25C22 25.56503 21.56503 26 21 26C20.37715 26 20 25.62285 20 25L20 22L10 22L10 7C10 6.4349698 10.43497 6 11 6 z M 25 6C25.62285 6 26 6.37715 26 7L26 9L24 9L24 7C24 6.37715 24.37715 6 25 6 z M 12 9L12 11L20 11L20 9L12 9 z M 12 13L12 15L20 15L20 13L12 13 z M 12 17L12 19L17 19L17 17L12 17 z M 6 24L18 24L18 25C18 25.388365 18.280508 25.657757 18.417969 26L7 26C6.37715 26 6 25.62285 6 25L6 24 z" fill="#FFFFFF" />
</svg>